%TF.GenerationSoftware,KiCad,Pcbnew,9.0.1*%
%TF.CreationDate,2025-05-17T01:13:42+02:00*%
%TF.ProjectId,kurs,6b757273-2e6b-4696-9361-645f70636258,rev?*%
%TF.SameCoordinates,Original*%
%TF.FileFunction,Legend,Top*%
%TF.FilePolarity,Positive*%
%FSLAX46Y46*%
G04 Gerber Fmt 4.6, Leading zero omitted, Abs format (unit mm)*
G04 Created by KiCad (PCBNEW 9.0.1) date 2025-05-17 01:13:42*
%MOMM*%
%LPD*%
G01*
G04 APERTURE LIST*
%ADD10C,0.100000*%
%ADD11C,0.200000*%
%ADD12C,0.150000*%
%ADD13C,0.120000*%
G04 APERTURE END LIST*
D10*
X53484836Y-62710514D02*
X53484836Y-63472419D01*
X53675312Y-63281942D02*
X53484836Y-63472419D01*
X53484836Y-63472419D02*
X53294360Y-63281942D01*
X53875312Y-64896895D02*
X53418169Y-64896895D01*
X53646741Y-64896895D02*
X53646741Y-64096895D01*
X53646741Y-64096895D02*
X53570550Y-64211180D01*
X53570550Y-64211180D02*
X53494360Y-64287371D01*
X53494360Y-64287371D02*
X53418169Y-64325466D01*
D11*
X56629197Y-56786623D02*
X56629197Y-57798528D01*
X56629197Y-57798528D02*
X56688720Y-57917576D01*
X56688720Y-57917576D02*
X56748244Y-57977100D01*
X56748244Y-57977100D02*
X56867292Y-58036623D01*
X56867292Y-58036623D02*
X57105387Y-58036623D01*
X57105387Y-58036623D02*
X57224435Y-57977100D01*
X57224435Y-57977100D02*
X57283958Y-57917576D01*
X57283958Y-57917576D02*
X57343482Y-57798528D01*
X57343482Y-57798528D02*
X57343482Y-56786623D01*
X57879197Y-57679480D02*
X58474435Y-57679480D01*
X57760149Y-58036623D02*
X58176816Y-56786623D01*
X58176816Y-56786623D02*
X58593482Y-58036623D01*
X59724435Y-58036623D02*
X59307769Y-57441385D01*
X59010150Y-58036623D02*
X59010150Y-56786623D01*
X59010150Y-56786623D02*
X59486340Y-56786623D01*
X59486340Y-56786623D02*
X59605388Y-56846147D01*
X59605388Y-56846147D02*
X59664911Y-56905671D01*
X59664911Y-56905671D02*
X59724435Y-57024719D01*
X59724435Y-57024719D02*
X59724435Y-57203290D01*
X59724435Y-57203290D02*
X59664911Y-57322338D01*
X59664911Y-57322338D02*
X59605388Y-57381861D01*
X59605388Y-57381861D02*
X59486340Y-57441385D01*
X59486340Y-57441385D02*
X59010150Y-57441385D01*
X60081578Y-56786623D02*
X60795864Y-56786623D01*
X60438721Y-58036623D02*
X60438721Y-56786623D01*
X74769673Y-57777100D02*
X74948244Y-57836623D01*
X74948244Y-57836623D02*
X75245863Y-57836623D01*
X75245863Y-57836623D02*
X75364911Y-57777100D01*
X75364911Y-57777100D02*
X75424435Y-57717576D01*
X75424435Y-57717576D02*
X75483958Y-57598528D01*
X75483958Y-57598528D02*
X75483958Y-57479480D01*
X75483958Y-57479480D02*
X75424435Y-57360433D01*
X75424435Y-57360433D02*
X75364911Y-57300909D01*
X75364911Y-57300909D02*
X75245863Y-57241385D01*
X75245863Y-57241385D02*
X75007768Y-57181861D01*
X75007768Y-57181861D02*
X74888720Y-57122338D01*
X74888720Y-57122338D02*
X74829197Y-57062814D01*
X74829197Y-57062814D02*
X74769673Y-56943766D01*
X74769673Y-56943766D02*
X74769673Y-56824719D01*
X74769673Y-56824719D02*
X74829197Y-56705671D01*
X74829197Y-56705671D02*
X74888720Y-56646147D01*
X74888720Y-56646147D02*
X75007768Y-56586623D01*
X75007768Y-56586623D02*
X75305387Y-56586623D01*
X75305387Y-56586623D02*
X75483958Y-56646147D01*
X75900625Y-56586623D02*
X76198244Y-57836623D01*
X76198244Y-57836623D02*
X76436339Y-56943766D01*
X76436339Y-56943766D02*
X76674434Y-57836623D01*
X76674434Y-57836623D02*
X76972054Y-56586623D01*
X77448244Y-57836623D02*
X77448244Y-56586623D01*
X77448244Y-56586623D02*
X77745863Y-56586623D01*
X77745863Y-56586623D02*
X77924434Y-56646147D01*
X77924434Y-56646147D02*
X78043482Y-56765195D01*
X78043482Y-56765195D02*
X78103005Y-56884242D01*
X78103005Y-56884242D02*
X78162529Y-57122338D01*
X78162529Y-57122338D02*
X78162529Y-57300909D01*
X78162529Y-57300909D02*
X78103005Y-57539004D01*
X78103005Y-57539004D02*
X78043482Y-57658052D01*
X78043482Y-57658052D02*
X77924434Y-57777100D01*
X77924434Y-57777100D02*
X77745863Y-57836623D01*
X77745863Y-57836623D02*
X77448244Y-57836623D01*
X49245863Y-67581861D02*
X49424435Y-67641385D01*
X49424435Y-67641385D02*
X49483958Y-67700909D01*
X49483958Y-67700909D02*
X49543482Y-67819957D01*
X49543482Y-67819957D02*
X49543482Y-67998528D01*
X49543482Y-67998528D02*
X49483958Y-68117576D01*
X49483958Y-68117576D02*
X49424435Y-68177100D01*
X49424435Y-68177100D02*
X49305387Y-68236623D01*
X49305387Y-68236623D02*
X48829197Y-68236623D01*
X48829197Y-68236623D02*
X48829197Y-66986623D01*
X48829197Y-66986623D02*
X49245863Y-66986623D01*
X49245863Y-66986623D02*
X49364911Y-67046147D01*
X49364911Y-67046147D02*
X49424435Y-67105671D01*
X49424435Y-67105671D02*
X49483958Y-67224719D01*
X49483958Y-67224719D02*
X49483958Y-67343766D01*
X49483958Y-67343766D02*
X49424435Y-67462814D01*
X49424435Y-67462814D02*
X49364911Y-67522338D01*
X49364911Y-67522338D02*
X49245863Y-67581861D01*
X49245863Y-67581861D02*
X48829197Y-67581861D01*
X50317292Y-66986623D02*
X50555387Y-66986623D01*
X50555387Y-66986623D02*
X50674435Y-67046147D01*
X50674435Y-67046147D02*
X50793482Y-67165195D01*
X50793482Y-67165195D02*
X50853006Y-67403290D01*
X50853006Y-67403290D02*
X50853006Y-67819957D01*
X50853006Y-67819957D02*
X50793482Y-68058052D01*
X50793482Y-68058052D02*
X50674435Y-68177100D01*
X50674435Y-68177100D02*
X50555387Y-68236623D01*
X50555387Y-68236623D02*
X50317292Y-68236623D01*
X50317292Y-68236623D02*
X50198244Y-68177100D01*
X50198244Y-68177100D02*
X50079197Y-68058052D01*
X50079197Y-68058052D02*
X50019673Y-67819957D01*
X50019673Y-67819957D02*
X50019673Y-67403290D01*
X50019673Y-67403290D02*
X50079197Y-67165195D01*
X50079197Y-67165195D02*
X50198244Y-67046147D01*
X50198244Y-67046147D02*
X50317292Y-66986623D01*
X51626816Y-66986623D02*
X51864911Y-66986623D01*
X51864911Y-66986623D02*
X51983959Y-67046147D01*
X51983959Y-67046147D02*
X52103006Y-67165195D01*
X52103006Y-67165195D02*
X52162530Y-67403290D01*
X52162530Y-67403290D02*
X52162530Y-67819957D01*
X52162530Y-67819957D02*
X52103006Y-68058052D01*
X52103006Y-68058052D02*
X51983959Y-68177100D01*
X51983959Y-68177100D02*
X51864911Y-68236623D01*
X51864911Y-68236623D02*
X51626816Y-68236623D01*
X51626816Y-68236623D02*
X51507768Y-68177100D01*
X51507768Y-68177100D02*
X51388721Y-68058052D01*
X51388721Y-68058052D02*
X51329197Y-67819957D01*
X51329197Y-67819957D02*
X51329197Y-67403290D01*
X51329197Y-67403290D02*
X51388721Y-67165195D01*
X51388721Y-67165195D02*
X51507768Y-67046147D01*
X51507768Y-67046147D02*
X51626816Y-66986623D01*
X52519673Y-66986623D02*
X53233959Y-66986623D01*
X52876816Y-68236623D02*
X52876816Y-66986623D01*
D12*
X55923809Y-70578628D02*
X55923809Y-71054819D01*
X55590476Y-70054819D02*
X55923809Y-70578628D01*
X55923809Y-70578628D02*
X56257142Y-70054819D01*
X57114285Y-71054819D02*
X56542857Y-71054819D01*
X56828571Y-71054819D02*
X56828571Y-70054819D01*
X56828571Y-70054819D02*
X56733333Y-70197676D01*
X56733333Y-70197676D02*
X56638095Y-70292914D01*
X56638095Y-70292914D02*
X56542857Y-70340533D01*
X63366666Y-76931009D02*
X63033333Y-76931009D01*
X63033333Y-77454819D02*
X63033333Y-76454819D01*
X63033333Y-76454819D02*
X63509523Y-76454819D01*
X64223809Y-76931009D02*
X64366666Y-76978628D01*
X64366666Y-76978628D02*
X64414285Y-77026247D01*
X64414285Y-77026247D02*
X64461904Y-77121485D01*
X64461904Y-77121485D02*
X64461904Y-77264342D01*
X64461904Y-77264342D02*
X64414285Y-77359580D01*
X64414285Y-77359580D02*
X64366666Y-77407200D01*
X64366666Y-77407200D02*
X64271428Y-77454819D01*
X64271428Y-77454819D02*
X63890476Y-77454819D01*
X63890476Y-77454819D02*
X63890476Y-76454819D01*
X63890476Y-76454819D02*
X64223809Y-76454819D01*
X64223809Y-76454819D02*
X64319047Y-76502438D01*
X64319047Y-76502438D02*
X64366666Y-76550057D01*
X64366666Y-76550057D02*
X64414285Y-76645295D01*
X64414285Y-76645295D02*
X64414285Y-76740533D01*
X64414285Y-76740533D02*
X64366666Y-76835771D01*
X64366666Y-76835771D02*
X64319047Y-76883390D01*
X64319047Y-76883390D02*
X64223809Y-76931009D01*
X64223809Y-76931009D02*
X63890476Y-76931009D01*
X65414285Y-77454819D02*
X64842857Y-77454819D01*
X65128571Y-77454819D02*
X65128571Y-76454819D01*
X65128571Y-76454819D02*
X65033333Y-76597676D01*
X65033333Y-76597676D02*
X64938095Y-76692914D01*
X64938095Y-76692914D02*
X64842857Y-76740533D01*
X75733333Y-65459580D02*
X75685714Y-65507200D01*
X75685714Y-65507200D02*
X75542857Y-65554819D01*
X75542857Y-65554819D02*
X75447619Y-65554819D01*
X75447619Y-65554819D02*
X75304762Y-65507200D01*
X75304762Y-65507200D02*
X75209524Y-65411961D01*
X75209524Y-65411961D02*
X75161905Y-65316723D01*
X75161905Y-65316723D02*
X75114286Y-65126247D01*
X75114286Y-65126247D02*
X75114286Y-64983390D01*
X75114286Y-64983390D02*
X75161905Y-64792914D01*
X75161905Y-64792914D02*
X75209524Y-64697676D01*
X75209524Y-64697676D02*
X75304762Y-64602438D01*
X75304762Y-64602438D02*
X75447619Y-64554819D01*
X75447619Y-64554819D02*
X75542857Y-64554819D01*
X75542857Y-64554819D02*
X75685714Y-64602438D01*
X75685714Y-64602438D02*
X75733333Y-64650057D01*
X76066667Y-64554819D02*
X76685714Y-64554819D01*
X76685714Y-64554819D02*
X76352381Y-64935771D01*
X76352381Y-64935771D02*
X76495238Y-64935771D01*
X76495238Y-64935771D02*
X76590476Y-64983390D01*
X76590476Y-64983390D02*
X76638095Y-65031009D01*
X76638095Y-65031009D02*
X76685714Y-65126247D01*
X76685714Y-65126247D02*
X76685714Y-65364342D01*
X76685714Y-65364342D02*
X76638095Y-65459580D01*
X76638095Y-65459580D02*
X76590476Y-65507200D01*
X76590476Y-65507200D02*
X76495238Y-65554819D01*
X76495238Y-65554819D02*
X76209524Y-65554819D01*
X76209524Y-65554819D02*
X76114286Y-65507200D01*
X76114286Y-65507200D02*
X76066667Y-65459580D01*
X68233333Y-61359580D02*
X68185714Y-61407200D01*
X68185714Y-61407200D02*
X68042857Y-61454819D01*
X68042857Y-61454819D02*
X67947619Y-61454819D01*
X67947619Y-61454819D02*
X67804762Y-61407200D01*
X67804762Y-61407200D02*
X67709524Y-61311961D01*
X67709524Y-61311961D02*
X67661905Y-61216723D01*
X67661905Y-61216723D02*
X67614286Y-61026247D01*
X67614286Y-61026247D02*
X67614286Y-60883390D01*
X67614286Y-60883390D02*
X67661905Y-60692914D01*
X67661905Y-60692914D02*
X67709524Y-60597676D01*
X67709524Y-60597676D02*
X67804762Y-60502438D01*
X67804762Y-60502438D02*
X67947619Y-60454819D01*
X67947619Y-60454819D02*
X68042857Y-60454819D01*
X68042857Y-60454819D02*
X68185714Y-60502438D01*
X68185714Y-60502438D02*
X68233333Y-60550057D01*
X69138095Y-60454819D02*
X68661905Y-60454819D01*
X68661905Y-60454819D02*
X68614286Y-60931009D01*
X68614286Y-60931009D02*
X68661905Y-60883390D01*
X68661905Y-60883390D02*
X68757143Y-60835771D01*
X68757143Y-60835771D02*
X68995238Y-60835771D01*
X68995238Y-60835771D02*
X69090476Y-60883390D01*
X69090476Y-60883390D02*
X69138095Y-60931009D01*
X69138095Y-60931009D02*
X69185714Y-61026247D01*
X69185714Y-61026247D02*
X69185714Y-61264342D01*
X69185714Y-61264342D02*
X69138095Y-61359580D01*
X69138095Y-61359580D02*
X69090476Y-61407200D01*
X69090476Y-61407200D02*
X68995238Y-61454819D01*
X68995238Y-61454819D02*
X68757143Y-61454819D01*
X68757143Y-61454819D02*
X68661905Y-61407200D01*
X68661905Y-61407200D02*
X68614286Y-61359580D01*
X67488095Y-62267319D02*
X67488095Y-63076842D01*
X67488095Y-63076842D02*
X67535714Y-63172080D01*
X67535714Y-63172080D02*
X67583333Y-63219700D01*
X67583333Y-63219700D02*
X67678571Y-63267319D01*
X67678571Y-63267319D02*
X67869047Y-63267319D01*
X67869047Y-63267319D02*
X67964285Y-63219700D01*
X67964285Y-63219700D02*
X68011904Y-63172080D01*
X68011904Y-63172080D02*
X68059523Y-63076842D01*
X68059523Y-63076842D02*
X68059523Y-62267319D01*
X69059523Y-63267319D02*
X68488095Y-63267319D01*
X68773809Y-63267319D02*
X68773809Y-62267319D01*
X68773809Y-62267319D02*
X68678571Y-62410176D01*
X68678571Y-62410176D02*
X68583333Y-62505414D01*
X68583333Y-62505414D02*
X68488095Y-62553033D01*
X84461905Y-77454819D02*
X84461905Y-76454819D01*
X84461905Y-76454819D02*
X84700000Y-76454819D01*
X84700000Y-76454819D02*
X84842857Y-76502438D01*
X84842857Y-76502438D02*
X84938095Y-76597676D01*
X84938095Y-76597676D02*
X84985714Y-76692914D01*
X84985714Y-76692914D02*
X85033333Y-76883390D01*
X85033333Y-76883390D02*
X85033333Y-77026247D01*
X85033333Y-77026247D02*
X84985714Y-77216723D01*
X84985714Y-77216723D02*
X84938095Y-77311961D01*
X84938095Y-77311961D02*
X84842857Y-77407200D01*
X84842857Y-77407200D02*
X84700000Y-77454819D01*
X84700000Y-77454819D02*
X84461905Y-77454819D01*
X85985714Y-77454819D02*
X85414286Y-77454819D01*
X85700000Y-77454819D02*
X85700000Y-76454819D01*
X85700000Y-76454819D02*
X85604762Y-76597676D01*
X85604762Y-76597676D02*
X85509524Y-76692914D01*
X85509524Y-76692914D02*
X85414286Y-76740533D01*
X58957142Y-63959580D02*
X58909523Y-64007200D01*
X58909523Y-64007200D02*
X58766666Y-64054819D01*
X58766666Y-64054819D02*
X58671428Y-64054819D01*
X58671428Y-64054819D02*
X58528571Y-64007200D01*
X58528571Y-64007200D02*
X58433333Y-63911961D01*
X58433333Y-63911961D02*
X58385714Y-63816723D01*
X58385714Y-63816723D02*
X58338095Y-63626247D01*
X58338095Y-63626247D02*
X58338095Y-63483390D01*
X58338095Y-63483390D02*
X58385714Y-63292914D01*
X58385714Y-63292914D02*
X58433333Y-63197676D01*
X58433333Y-63197676D02*
X58528571Y-63102438D01*
X58528571Y-63102438D02*
X58671428Y-63054819D01*
X58671428Y-63054819D02*
X58766666Y-63054819D01*
X58766666Y-63054819D02*
X58909523Y-63102438D01*
X58909523Y-63102438D02*
X58957142Y-63150057D01*
X59909523Y-64054819D02*
X59338095Y-64054819D01*
X59623809Y-64054819D02*
X59623809Y-63054819D01*
X59623809Y-63054819D02*
X59528571Y-63197676D01*
X59528571Y-63197676D02*
X59433333Y-63292914D01*
X59433333Y-63292914D02*
X59338095Y-63340533D01*
X60528571Y-63054819D02*
X60623809Y-63054819D01*
X60623809Y-63054819D02*
X60719047Y-63102438D01*
X60719047Y-63102438D02*
X60766666Y-63150057D01*
X60766666Y-63150057D02*
X60814285Y-63245295D01*
X60814285Y-63245295D02*
X60861904Y-63435771D01*
X60861904Y-63435771D02*
X60861904Y-63673866D01*
X60861904Y-63673866D02*
X60814285Y-63864342D01*
X60814285Y-63864342D02*
X60766666Y-63959580D01*
X60766666Y-63959580D02*
X60719047Y-64007200D01*
X60719047Y-64007200D02*
X60623809Y-64054819D01*
X60623809Y-64054819D02*
X60528571Y-64054819D01*
X60528571Y-64054819D02*
X60433333Y-64007200D01*
X60433333Y-64007200D02*
X60385714Y-63959580D01*
X60385714Y-63959580D02*
X60338095Y-63864342D01*
X60338095Y-63864342D02*
X60290476Y-63673866D01*
X60290476Y-63673866D02*
X60290476Y-63435771D01*
X60290476Y-63435771D02*
X60338095Y-63245295D01*
X60338095Y-63245295D02*
X60385714Y-63150057D01*
X60385714Y-63150057D02*
X60433333Y-63102438D01*
X60433333Y-63102438D02*
X60528571Y-63054819D01*
X86823333Y-73784819D02*
X86490000Y-73308628D01*
X86251905Y-73784819D02*
X86251905Y-72784819D01*
X86251905Y-72784819D02*
X86632857Y-72784819D01*
X86632857Y-72784819D02*
X86728095Y-72832438D01*
X86728095Y-72832438D02*
X86775714Y-72880057D01*
X86775714Y-72880057D02*
X86823333Y-72975295D01*
X86823333Y-72975295D02*
X86823333Y-73118152D01*
X86823333Y-73118152D02*
X86775714Y-73213390D01*
X86775714Y-73213390D02*
X86728095Y-73261009D01*
X86728095Y-73261009D02*
X86632857Y-73308628D01*
X86632857Y-73308628D02*
X86251905Y-73308628D01*
X87156667Y-72784819D02*
X87775714Y-72784819D01*
X87775714Y-72784819D02*
X87442381Y-73165771D01*
X87442381Y-73165771D02*
X87585238Y-73165771D01*
X87585238Y-73165771D02*
X87680476Y-73213390D01*
X87680476Y-73213390D02*
X87728095Y-73261009D01*
X87728095Y-73261009D02*
X87775714Y-73356247D01*
X87775714Y-73356247D02*
X87775714Y-73594342D01*
X87775714Y-73594342D02*
X87728095Y-73689580D01*
X87728095Y-73689580D02*
X87680476Y-73737200D01*
X87680476Y-73737200D02*
X87585238Y-73784819D01*
X87585238Y-73784819D02*
X87299524Y-73784819D01*
X87299524Y-73784819D02*
X87204286Y-73737200D01*
X87204286Y-73737200D02*
X87156667Y-73689580D01*
X63233333Y-64359580D02*
X63185714Y-64407200D01*
X63185714Y-64407200D02*
X63042857Y-64454819D01*
X63042857Y-64454819D02*
X62947619Y-64454819D01*
X62947619Y-64454819D02*
X62804762Y-64407200D01*
X62804762Y-64407200D02*
X62709524Y-64311961D01*
X62709524Y-64311961D02*
X62661905Y-64216723D01*
X62661905Y-64216723D02*
X62614286Y-64026247D01*
X62614286Y-64026247D02*
X62614286Y-63883390D01*
X62614286Y-63883390D02*
X62661905Y-63692914D01*
X62661905Y-63692914D02*
X62709524Y-63597676D01*
X62709524Y-63597676D02*
X62804762Y-63502438D01*
X62804762Y-63502438D02*
X62947619Y-63454819D01*
X62947619Y-63454819D02*
X63042857Y-63454819D01*
X63042857Y-63454819D02*
X63185714Y-63502438D01*
X63185714Y-63502438D02*
X63233333Y-63550057D01*
X64185714Y-64454819D02*
X63614286Y-64454819D01*
X63900000Y-64454819D02*
X63900000Y-63454819D01*
X63900000Y-63454819D02*
X63804762Y-63597676D01*
X63804762Y-63597676D02*
X63709524Y-63692914D01*
X63709524Y-63692914D02*
X63614286Y-63740533D01*
X72973333Y-75359580D02*
X72925714Y-75407200D01*
X72925714Y-75407200D02*
X72782857Y-75454819D01*
X72782857Y-75454819D02*
X72687619Y-75454819D01*
X72687619Y-75454819D02*
X72544762Y-75407200D01*
X72544762Y-75407200D02*
X72449524Y-75311961D01*
X72449524Y-75311961D02*
X72401905Y-75216723D01*
X72401905Y-75216723D02*
X72354286Y-75026247D01*
X72354286Y-75026247D02*
X72354286Y-74883390D01*
X72354286Y-74883390D02*
X72401905Y-74692914D01*
X72401905Y-74692914D02*
X72449524Y-74597676D01*
X72449524Y-74597676D02*
X72544762Y-74502438D01*
X72544762Y-74502438D02*
X72687619Y-74454819D01*
X72687619Y-74454819D02*
X72782857Y-74454819D01*
X72782857Y-74454819D02*
X72925714Y-74502438D01*
X72925714Y-74502438D02*
X72973333Y-74550057D01*
X73354286Y-74550057D02*
X73401905Y-74502438D01*
X73401905Y-74502438D02*
X73497143Y-74454819D01*
X73497143Y-74454819D02*
X73735238Y-74454819D01*
X73735238Y-74454819D02*
X73830476Y-74502438D01*
X73830476Y-74502438D02*
X73878095Y-74550057D01*
X73878095Y-74550057D02*
X73925714Y-74645295D01*
X73925714Y-74645295D02*
X73925714Y-74740533D01*
X73925714Y-74740533D02*
X73878095Y-74883390D01*
X73878095Y-74883390D02*
X73306667Y-75454819D01*
X73306667Y-75454819D02*
X73925714Y-75454819D01*
X76957142Y-69559580D02*
X76909523Y-69607200D01*
X76909523Y-69607200D02*
X76766666Y-69654819D01*
X76766666Y-69654819D02*
X76671428Y-69654819D01*
X76671428Y-69654819D02*
X76528571Y-69607200D01*
X76528571Y-69607200D02*
X76433333Y-69511961D01*
X76433333Y-69511961D02*
X76385714Y-69416723D01*
X76385714Y-69416723D02*
X76338095Y-69226247D01*
X76338095Y-69226247D02*
X76338095Y-69083390D01*
X76338095Y-69083390D02*
X76385714Y-68892914D01*
X76385714Y-68892914D02*
X76433333Y-68797676D01*
X76433333Y-68797676D02*
X76528571Y-68702438D01*
X76528571Y-68702438D02*
X76671428Y-68654819D01*
X76671428Y-68654819D02*
X76766666Y-68654819D01*
X76766666Y-68654819D02*
X76909523Y-68702438D01*
X76909523Y-68702438D02*
X76957142Y-68750057D01*
X77909523Y-69654819D02*
X77338095Y-69654819D01*
X77623809Y-69654819D02*
X77623809Y-68654819D01*
X77623809Y-68654819D02*
X77528571Y-68797676D01*
X77528571Y-68797676D02*
X77433333Y-68892914D01*
X77433333Y-68892914D02*
X77338095Y-68940533D01*
X78290476Y-68750057D02*
X78338095Y-68702438D01*
X78338095Y-68702438D02*
X78433333Y-68654819D01*
X78433333Y-68654819D02*
X78671428Y-68654819D01*
X78671428Y-68654819D02*
X78766666Y-68702438D01*
X78766666Y-68702438D02*
X78814285Y-68750057D01*
X78814285Y-68750057D02*
X78861904Y-68845295D01*
X78861904Y-68845295D02*
X78861904Y-68940533D01*
X78861904Y-68940533D02*
X78814285Y-69083390D01*
X78814285Y-69083390D02*
X78242857Y-69654819D01*
X78242857Y-69654819D02*
X78861904Y-69654819D01*
X59333333Y-77059580D02*
X59285714Y-77107200D01*
X59285714Y-77107200D02*
X59142857Y-77154819D01*
X59142857Y-77154819D02*
X59047619Y-77154819D01*
X59047619Y-77154819D02*
X58904762Y-77107200D01*
X58904762Y-77107200D02*
X58809524Y-77011961D01*
X58809524Y-77011961D02*
X58761905Y-76916723D01*
X58761905Y-76916723D02*
X58714286Y-76726247D01*
X58714286Y-76726247D02*
X58714286Y-76583390D01*
X58714286Y-76583390D02*
X58761905Y-76392914D01*
X58761905Y-76392914D02*
X58809524Y-76297676D01*
X58809524Y-76297676D02*
X58904762Y-76202438D01*
X58904762Y-76202438D02*
X59047619Y-76154819D01*
X59047619Y-76154819D02*
X59142857Y-76154819D01*
X59142857Y-76154819D02*
X59285714Y-76202438D01*
X59285714Y-76202438D02*
X59333333Y-76250057D01*
X59904762Y-76583390D02*
X59809524Y-76535771D01*
X59809524Y-76535771D02*
X59761905Y-76488152D01*
X59761905Y-76488152D02*
X59714286Y-76392914D01*
X59714286Y-76392914D02*
X59714286Y-76345295D01*
X59714286Y-76345295D02*
X59761905Y-76250057D01*
X59761905Y-76250057D02*
X59809524Y-76202438D01*
X59809524Y-76202438D02*
X59904762Y-76154819D01*
X59904762Y-76154819D02*
X60095238Y-76154819D01*
X60095238Y-76154819D02*
X60190476Y-76202438D01*
X60190476Y-76202438D02*
X60238095Y-76250057D01*
X60238095Y-76250057D02*
X60285714Y-76345295D01*
X60285714Y-76345295D02*
X60285714Y-76392914D01*
X60285714Y-76392914D02*
X60238095Y-76488152D01*
X60238095Y-76488152D02*
X60190476Y-76535771D01*
X60190476Y-76535771D02*
X60095238Y-76583390D01*
X60095238Y-76583390D02*
X59904762Y-76583390D01*
X59904762Y-76583390D02*
X59809524Y-76631009D01*
X59809524Y-76631009D02*
X59761905Y-76678628D01*
X59761905Y-76678628D02*
X59714286Y-76773866D01*
X59714286Y-76773866D02*
X59714286Y-76964342D01*
X59714286Y-76964342D02*
X59761905Y-77059580D01*
X59761905Y-77059580D02*
X59809524Y-77107200D01*
X59809524Y-77107200D02*
X59904762Y-77154819D01*
X59904762Y-77154819D02*
X60095238Y-77154819D01*
X60095238Y-77154819D02*
X60190476Y-77107200D01*
X60190476Y-77107200D02*
X60238095Y-77059580D01*
X60238095Y-77059580D02*
X60285714Y-76964342D01*
X60285714Y-76964342D02*
X60285714Y-76773866D01*
X60285714Y-76773866D02*
X60238095Y-76678628D01*
X60238095Y-76678628D02*
X60190476Y-76631009D01*
X60190476Y-76631009D02*
X60095238Y-76583390D01*
X62033333Y-72019580D02*
X61985714Y-72067200D01*
X61985714Y-72067200D02*
X61842857Y-72114819D01*
X61842857Y-72114819D02*
X61747619Y-72114819D01*
X61747619Y-72114819D02*
X61604762Y-72067200D01*
X61604762Y-72067200D02*
X61509524Y-71971961D01*
X61509524Y-71971961D02*
X61461905Y-71876723D01*
X61461905Y-71876723D02*
X61414286Y-71686247D01*
X61414286Y-71686247D02*
X61414286Y-71543390D01*
X61414286Y-71543390D02*
X61461905Y-71352914D01*
X61461905Y-71352914D02*
X61509524Y-71257676D01*
X61509524Y-71257676D02*
X61604762Y-71162438D01*
X61604762Y-71162438D02*
X61747619Y-71114819D01*
X61747619Y-71114819D02*
X61842857Y-71114819D01*
X61842857Y-71114819D02*
X61985714Y-71162438D01*
X61985714Y-71162438D02*
X62033333Y-71210057D01*
X62890476Y-71114819D02*
X62700000Y-71114819D01*
X62700000Y-71114819D02*
X62604762Y-71162438D01*
X62604762Y-71162438D02*
X62557143Y-71210057D01*
X62557143Y-71210057D02*
X62461905Y-71352914D01*
X62461905Y-71352914D02*
X62414286Y-71543390D01*
X62414286Y-71543390D02*
X62414286Y-71924342D01*
X62414286Y-71924342D02*
X62461905Y-72019580D01*
X62461905Y-72019580D02*
X62509524Y-72067200D01*
X62509524Y-72067200D02*
X62604762Y-72114819D01*
X62604762Y-72114819D02*
X62795238Y-72114819D01*
X62795238Y-72114819D02*
X62890476Y-72067200D01*
X62890476Y-72067200D02*
X62938095Y-72019580D01*
X62938095Y-72019580D02*
X62985714Y-71924342D01*
X62985714Y-71924342D02*
X62985714Y-71686247D01*
X62985714Y-71686247D02*
X62938095Y-71591009D01*
X62938095Y-71591009D02*
X62890476Y-71543390D01*
X62890476Y-71543390D02*
X62795238Y-71495771D01*
X62795238Y-71495771D02*
X62604762Y-71495771D01*
X62604762Y-71495771D02*
X62509524Y-71543390D01*
X62509524Y-71543390D02*
X62461905Y-71591009D01*
X62461905Y-71591009D02*
X62414286Y-71686247D01*
X68233333Y-74759580D02*
X68185714Y-74807200D01*
X68185714Y-74807200D02*
X68042857Y-74854819D01*
X68042857Y-74854819D02*
X67947619Y-74854819D01*
X67947619Y-74854819D02*
X67804762Y-74807200D01*
X67804762Y-74807200D02*
X67709524Y-74711961D01*
X67709524Y-74711961D02*
X67661905Y-74616723D01*
X67661905Y-74616723D02*
X67614286Y-74426247D01*
X67614286Y-74426247D02*
X67614286Y-74283390D01*
X67614286Y-74283390D02*
X67661905Y-74092914D01*
X67661905Y-74092914D02*
X67709524Y-73997676D01*
X67709524Y-73997676D02*
X67804762Y-73902438D01*
X67804762Y-73902438D02*
X67947619Y-73854819D01*
X67947619Y-73854819D02*
X68042857Y-73854819D01*
X68042857Y-73854819D02*
X68185714Y-73902438D01*
X68185714Y-73902438D02*
X68233333Y-73950057D01*
X68709524Y-74854819D02*
X68900000Y-74854819D01*
X68900000Y-74854819D02*
X68995238Y-74807200D01*
X68995238Y-74807200D02*
X69042857Y-74759580D01*
X69042857Y-74759580D02*
X69138095Y-74616723D01*
X69138095Y-74616723D02*
X69185714Y-74426247D01*
X69185714Y-74426247D02*
X69185714Y-74045295D01*
X69185714Y-74045295D02*
X69138095Y-73950057D01*
X69138095Y-73950057D02*
X69090476Y-73902438D01*
X69090476Y-73902438D02*
X68995238Y-73854819D01*
X68995238Y-73854819D02*
X68804762Y-73854819D01*
X68804762Y-73854819D02*
X68709524Y-73902438D01*
X68709524Y-73902438D02*
X68661905Y-73950057D01*
X68661905Y-73950057D02*
X68614286Y-74045295D01*
X68614286Y-74045295D02*
X68614286Y-74283390D01*
X68614286Y-74283390D02*
X68661905Y-74378628D01*
X68661905Y-74378628D02*
X68709524Y-74426247D01*
X68709524Y-74426247D02*
X68804762Y-74473866D01*
X68804762Y-74473866D02*
X68995238Y-74473866D01*
X68995238Y-74473866D02*
X69090476Y-74426247D01*
X69090476Y-74426247D02*
X69138095Y-74378628D01*
X69138095Y-74378628D02*
X69185714Y-74283390D01*
X59333333Y-73359580D02*
X59285714Y-73407200D01*
X59285714Y-73407200D02*
X59142857Y-73454819D01*
X59142857Y-73454819D02*
X59047619Y-73454819D01*
X59047619Y-73454819D02*
X58904762Y-73407200D01*
X58904762Y-73407200D02*
X58809524Y-73311961D01*
X58809524Y-73311961D02*
X58761905Y-73216723D01*
X58761905Y-73216723D02*
X58714286Y-73026247D01*
X58714286Y-73026247D02*
X58714286Y-72883390D01*
X58714286Y-72883390D02*
X58761905Y-72692914D01*
X58761905Y-72692914D02*
X58809524Y-72597676D01*
X58809524Y-72597676D02*
X58904762Y-72502438D01*
X58904762Y-72502438D02*
X59047619Y-72454819D01*
X59047619Y-72454819D02*
X59142857Y-72454819D01*
X59142857Y-72454819D02*
X59285714Y-72502438D01*
X59285714Y-72502438D02*
X59333333Y-72550057D01*
X59666667Y-72454819D02*
X60333333Y-72454819D01*
X60333333Y-72454819D02*
X59904762Y-73454819D01*
X66123333Y-79454819D02*
X65790000Y-78978628D01*
X65551905Y-79454819D02*
X65551905Y-78454819D01*
X65551905Y-78454819D02*
X65932857Y-78454819D01*
X65932857Y-78454819D02*
X66028095Y-78502438D01*
X66028095Y-78502438D02*
X66075714Y-78550057D01*
X66075714Y-78550057D02*
X66123333Y-78645295D01*
X66123333Y-78645295D02*
X66123333Y-78788152D01*
X66123333Y-78788152D02*
X66075714Y-78883390D01*
X66075714Y-78883390D02*
X66028095Y-78931009D01*
X66028095Y-78931009D02*
X65932857Y-78978628D01*
X65932857Y-78978628D02*
X65551905Y-78978628D01*
X66980476Y-78788152D02*
X66980476Y-79454819D01*
X66742381Y-78407200D02*
X66504286Y-79121485D01*
X66504286Y-79121485D02*
X67123333Y-79121485D01*
X54433333Y-62254819D02*
X54100000Y-61778628D01*
X53861905Y-62254819D02*
X53861905Y-61254819D01*
X53861905Y-61254819D02*
X54242857Y-61254819D01*
X54242857Y-61254819D02*
X54338095Y-61302438D01*
X54338095Y-61302438D02*
X54385714Y-61350057D01*
X54385714Y-61350057D02*
X54433333Y-61445295D01*
X54433333Y-61445295D02*
X54433333Y-61588152D01*
X54433333Y-61588152D02*
X54385714Y-61683390D01*
X54385714Y-61683390D02*
X54338095Y-61731009D01*
X54338095Y-61731009D02*
X54242857Y-61778628D01*
X54242857Y-61778628D02*
X53861905Y-61778628D01*
X55385714Y-62254819D02*
X54814286Y-62254819D01*
X55100000Y-62254819D02*
X55100000Y-61254819D01*
X55100000Y-61254819D02*
X55004762Y-61397676D01*
X55004762Y-61397676D02*
X54909524Y-61492914D01*
X54909524Y-61492914D02*
X54814286Y-61540533D01*
X68623333Y-79454819D02*
X68290000Y-78978628D01*
X68051905Y-79454819D02*
X68051905Y-78454819D01*
X68051905Y-78454819D02*
X68432857Y-78454819D01*
X68432857Y-78454819D02*
X68528095Y-78502438D01*
X68528095Y-78502438D02*
X68575714Y-78550057D01*
X68575714Y-78550057D02*
X68623333Y-78645295D01*
X68623333Y-78645295D02*
X68623333Y-78788152D01*
X68623333Y-78788152D02*
X68575714Y-78883390D01*
X68575714Y-78883390D02*
X68528095Y-78931009D01*
X68528095Y-78931009D02*
X68432857Y-78978628D01*
X68432857Y-78978628D02*
X68051905Y-78978628D01*
X69528095Y-78454819D02*
X69051905Y-78454819D01*
X69051905Y-78454819D02*
X69004286Y-78931009D01*
X69004286Y-78931009D02*
X69051905Y-78883390D01*
X69051905Y-78883390D02*
X69147143Y-78835771D01*
X69147143Y-78835771D02*
X69385238Y-78835771D01*
X69385238Y-78835771D02*
X69480476Y-78883390D01*
X69480476Y-78883390D02*
X69528095Y-78931009D01*
X69528095Y-78931009D02*
X69575714Y-79026247D01*
X69575714Y-79026247D02*
X69575714Y-79264342D01*
X69575714Y-79264342D02*
X69528095Y-79359580D01*
X69528095Y-79359580D02*
X69480476Y-79407200D01*
X69480476Y-79407200D02*
X69385238Y-79454819D01*
X69385238Y-79454819D02*
X69147143Y-79454819D01*
X69147143Y-79454819D02*
X69051905Y-79407200D01*
X69051905Y-79407200D02*
X69004286Y-79359580D01*
X63533333Y-62959580D02*
X63485714Y-63007200D01*
X63485714Y-63007200D02*
X63342857Y-63054819D01*
X63342857Y-63054819D02*
X63247619Y-63054819D01*
X63247619Y-63054819D02*
X63104762Y-63007200D01*
X63104762Y-63007200D02*
X63009524Y-62911961D01*
X63009524Y-62911961D02*
X62961905Y-62816723D01*
X62961905Y-62816723D02*
X62914286Y-62626247D01*
X62914286Y-62626247D02*
X62914286Y-62483390D01*
X62914286Y-62483390D02*
X62961905Y-62292914D01*
X62961905Y-62292914D02*
X63009524Y-62197676D01*
X63009524Y-62197676D02*
X63104762Y-62102438D01*
X63104762Y-62102438D02*
X63247619Y-62054819D01*
X63247619Y-62054819D02*
X63342857Y-62054819D01*
X63342857Y-62054819D02*
X63485714Y-62102438D01*
X63485714Y-62102438D02*
X63533333Y-62150057D01*
X64390476Y-62388152D02*
X64390476Y-63054819D01*
X64152381Y-62007200D02*
X63914286Y-62721485D01*
X63914286Y-62721485D02*
X64533333Y-62721485D01*
X82857142Y-74859580D02*
X82809523Y-74907200D01*
X82809523Y-74907200D02*
X82666666Y-74954819D01*
X82666666Y-74954819D02*
X82571428Y-74954819D01*
X82571428Y-74954819D02*
X82428571Y-74907200D01*
X82428571Y-74907200D02*
X82333333Y-74811961D01*
X82333333Y-74811961D02*
X82285714Y-74716723D01*
X82285714Y-74716723D02*
X82238095Y-74526247D01*
X82238095Y-74526247D02*
X82238095Y-74383390D01*
X82238095Y-74383390D02*
X82285714Y-74192914D01*
X82285714Y-74192914D02*
X82333333Y-74097676D01*
X82333333Y-74097676D02*
X82428571Y-74002438D01*
X82428571Y-74002438D02*
X82571428Y-73954819D01*
X82571428Y-73954819D02*
X82666666Y-73954819D01*
X82666666Y-73954819D02*
X82809523Y-74002438D01*
X82809523Y-74002438D02*
X82857142Y-74050057D01*
X83809523Y-74954819D02*
X83238095Y-74954819D01*
X83523809Y-74954819D02*
X83523809Y-73954819D01*
X83523809Y-73954819D02*
X83428571Y-74097676D01*
X83428571Y-74097676D02*
X83333333Y-74192914D01*
X83333333Y-74192914D02*
X83238095Y-74240533D01*
X84142857Y-73954819D02*
X84761904Y-73954819D01*
X84761904Y-73954819D02*
X84428571Y-74335771D01*
X84428571Y-74335771D02*
X84571428Y-74335771D01*
X84571428Y-74335771D02*
X84666666Y-74383390D01*
X84666666Y-74383390D02*
X84714285Y-74431009D01*
X84714285Y-74431009D02*
X84761904Y-74526247D01*
X84761904Y-74526247D02*
X84761904Y-74764342D01*
X84761904Y-74764342D02*
X84714285Y-74859580D01*
X84714285Y-74859580D02*
X84666666Y-74907200D01*
X84666666Y-74907200D02*
X84571428Y-74954819D01*
X84571428Y-74954819D02*
X84285714Y-74954819D01*
X84285714Y-74954819D02*
X84190476Y-74907200D01*
X84190476Y-74907200D02*
X84142857Y-74859580D01*
X78833333Y-66074819D02*
X78500000Y-65598628D01*
X78261905Y-66074819D02*
X78261905Y-65074819D01*
X78261905Y-65074819D02*
X78642857Y-65074819D01*
X78642857Y-65074819D02*
X78738095Y-65122438D01*
X78738095Y-65122438D02*
X78785714Y-65170057D01*
X78785714Y-65170057D02*
X78833333Y-65265295D01*
X78833333Y-65265295D02*
X78833333Y-65408152D01*
X78833333Y-65408152D02*
X78785714Y-65503390D01*
X78785714Y-65503390D02*
X78738095Y-65551009D01*
X78738095Y-65551009D02*
X78642857Y-65598628D01*
X78642857Y-65598628D02*
X78261905Y-65598628D01*
X79214286Y-65170057D02*
X79261905Y-65122438D01*
X79261905Y-65122438D02*
X79357143Y-65074819D01*
X79357143Y-65074819D02*
X79595238Y-65074819D01*
X79595238Y-65074819D02*
X79690476Y-65122438D01*
X79690476Y-65122438D02*
X79738095Y-65170057D01*
X79738095Y-65170057D02*
X79785714Y-65265295D01*
X79785714Y-65265295D02*
X79785714Y-65360533D01*
X79785714Y-65360533D02*
X79738095Y-65503390D01*
X79738095Y-65503390D02*
X79166667Y-66074819D01*
X79166667Y-66074819D02*
X79785714Y-66074819D01*
X59357142Y-70479580D02*
X59309523Y-70527200D01*
X59309523Y-70527200D02*
X59166666Y-70574819D01*
X59166666Y-70574819D02*
X59071428Y-70574819D01*
X59071428Y-70574819D02*
X58928571Y-70527200D01*
X58928571Y-70527200D02*
X58833333Y-70431961D01*
X58833333Y-70431961D02*
X58785714Y-70336723D01*
X58785714Y-70336723D02*
X58738095Y-70146247D01*
X58738095Y-70146247D02*
X58738095Y-70003390D01*
X58738095Y-70003390D02*
X58785714Y-69812914D01*
X58785714Y-69812914D02*
X58833333Y-69717676D01*
X58833333Y-69717676D02*
X58928571Y-69622438D01*
X58928571Y-69622438D02*
X59071428Y-69574819D01*
X59071428Y-69574819D02*
X59166666Y-69574819D01*
X59166666Y-69574819D02*
X59309523Y-69622438D01*
X59309523Y-69622438D02*
X59357142Y-69670057D01*
X60309523Y-70574819D02*
X59738095Y-70574819D01*
X60023809Y-70574819D02*
X60023809Y-69574819D01*
X60023809Y-69574819D02*
X59928571Y-69717676D01*
X59928571Y-69717676D02*
X59833333Y-69812914D01*
X59833333Y-69812914D02*
X59738095Y-69860533D01*
X61261904Y-70574819D02*
X60690476Y-70574819D01*
X60976190Y-70574819D02*
X60976190Y-69574819D01*
X60976190Y-69574819D02*
X60880952Y-69717676D01*
X60880952Y-69717676D02*
X60785714Y-69812914D01*
X60785714Y-69812914D02*
X60690476Y-69860533D01*
X74138095Y-81454819D02*
X74138095Y-82264342D01*
X74138095Y-82264342D02*
X74185714Y-82359580D01*
X74185714Y-82359580D02*
X74233333Y-82407200D01*
X74233333Y-82407200D02*
X74328571Y-82454819D01*
X74328571Y-82454819D02*
X74519047Y-82454819D01*
X74519047Y-82454819D02*
X74614285Y-82407200D01*
X74614285Y-82407200D02*
X74661904Y-82359580D01*
X74661904Y-82359580D02*
X74709523Y-82264342D01*
X74709523Y-82264342D02*
X74709523Y-81454819D01*
X75138095Y-81550057D02*
X75185714Y-81502438D01*
X75185714Y-81502438D02*
X75280952Y-81454819D01*
X75280952Y-81454819D02*
X75519047Y-81454819D01*
X75519047Y-81454819D02*
X75614285Y-81502438D01*
X75614285Y-81502438D02*
X75661904Y-81550057D01*
X75661904Y-81550057D02*
X75709523Y-81645295D01*
X75709523Y-81645295D02*
X75709523Y-81740533D01*
X75709523Y-81740533D02*
X75661904Y-81883390D01*
X75661904Y-81883390D02*
X75090476Y-82454819D01*
X75090476Y-82454819D02*
X75709523Y-82454819D01*
D13*
%TO.C,SW1*%
X50640000Y-58800000D02*
X49850000Y-58800000D01*
X48840000Y-59400000D02*
X48840000Y-65100000D01*
X51690000Y-60650000D02*
X51690000Y-62350000D01*
X51690000Y-63650000D02*
X51690000Y-63850000D01*
X49850000Y-65700000D02*
X50640000Y-65700000D01*
%TO.C,Y1*%
X55500000Y-65100000D02*
X55500000Y-69100000D01*
X58800000Y-65100000D02*
X55500000Y-65100000D01*
%TO.C,FB1*%
X62990000Y-74875279D02*
X62990000Y-74549721D01*
X64010000Y-74875279D02*
X64010000Y-74549721D01*
%TO.C,J4*%
X62300000Y-84380000D02*
X62300000Y-83000000D01*
X63680000Y-84380000D02*
X62300000Y-84380000D01*
X64950000Y-81620000D02*
X72680000Y-81620000D01*
X64950000Y-84380000D02*
X64950000Y-81620000D01*
X64950000Y-84380000D02*
X72680000Y-84380000D01*
X72680000Y-84380000D02*
X72680000Y-81620000D01*
%TO.C,C3*%
X74040000Y-66012164D02*
X74040000Y-66227836D01*
X74760000Y-66012164D02*
X74760000Y-66227836D01*
%TO.C,C5*%
X65484420Y-60490000D02*
X65765580Y-60490000D01*
X65484420Y-61510000D02*
X65765580Y-61510000D01*
%TO.C,U1*%
X64640000Y-65052500D02*
X64640000Y-65502500D01*
X64640000Y-72272500D02*
X64640000Y-71822500D01*
X65090000Y-65052500D02*
X64640000Y-65052500D01*
X65090000Y-72272500D02*
X64640000Y-72272500D01*
X71410000Y-65052500D02*
X71860000Y-65052500D01*
X71410000Y-72272500D02*
X71860000Y-72272500D01*
X71860000Y-65052500D02*
X71860000Y-65502500D01*
X71860000Y-72272500D02*
X71860000Y-71822500D01*
X64050000Y-65502500D02*
X63710000Y-65032500D01*
X64390000Y-65032500D01*
X64050000Y-65502500D01*
G36*
X64050000Y-65502500D02*
G01*
X63710000Y-65032500D01*
X64390000Y-65032500D01*
X64050000Y-65502500D01*
G37*
%TO.C,D1*%
X86265000Y-75727500D02*
X86265000Y-78012500D01*
X87735000Y-75727500D02*
X86265000Y-75727500D01*
X87735000Y-78012500D02*
X87735000Y-75727500D01*
%TO.C,C10*%
X59640000Y-66147836D02*
X59640000Y-65932164D01*
X60360000Y-66147836D02*
X60360000Y-65932164D01*
%TO.C,R3*%
X86836359Y-74120000D02*
X87143641Y-74120000D01*
X86836359Y-74880000D02*
X87143641Y-74880000D01*
%TO.C,C1*%
X61640000Y-65027836D02*
X61640000Y-64812164D01*
X62360000Y-65027836D02*
X62360000Y-64812164D01*
%TO.C,C2*%
X71227836Y-74640000D02*
X71012164Y-74640000D01*
X71227836Y-75360000D02*
X71012164Y-75360000D01*
%TO.C,C12*%
X77288748Y-70265000D02*
X77811252Y-70265000D01*
X77288748Y-71735000D02*
X77811252Y-71735000D01*
%TO.C,C8*%
X61627836Y-75040000D02*
X61412164Y-75040000D01*
X61627836Y-75760000D02*
X61412164Y-75760000D01*
%TO.C,C6*%
X61840000Y-69787836D02*
X61840000Y-69572164D01*
X62560000Y-69787836D02*
X62560000Y-69572164D01*
%TO.C,C9*%
X65912164Y-74640000D02*
X66127836Y-74640000D01*
X65912164Y-75360000D02*
X66127836Y-75360000D01*
%TO.C,C7*%
X61627836Y-73640000D02*
X61412164Y-73640000D01*
X61627836Y-74360000D02*
X61412164Y-74360000D01*
%TO.C,R4*%
X66443641Y-79620000D02*
X66136359Y-79620000D01*
X66443641Y-80380000D02*
X66136359Y-80380000D01*
%TO.C,R1*%
X54120000Y-63643641D02*
X54120000Y-63336359D01*
X54880000Y-63643641D02*
X54880000Y-63336359D01*
D12*
%TO.C,J1*%
X85475000Y-69000000D02*
X85475000Y-69725000D01*
X85475000Y-69725000D02*
X85900000Y-69725000D01*
X85900000Y-66125000D02*
X85900000Y-65125000D01*
X85900000Y-69725000D02*
X85900000Y-70725000D01*
X87650000Y-72075000D02*
X89050000Y-72075000D01*
X89050000Y-63775000D02*
X87650000Y-63775000D01*
X91450000Y-72075000D02*
X91600000Y-72075000D01*
X91600000Y-63775000D02*
X91450000Y-63775000D01*
X91600000Y-64075000D02*
X91600000Y-63775000D01*
X91600000Y-71775000D02*
X92050000Y-71775000D01*
X91600000Y-72075000D02*
X91600000Y-71775000D01*
X92050000Y-64075000D02*
X91600000Y-64075000D01*
D13*
%TO.C,R5*%
X68636359Y-79620000D02*
X68943641Y-79620000D01*
X68636359Y-80380000D02*
X68943641Y-80380000D01*
%TO.C,C4*%
X65612164Y-62240000D02*
X65827836Y-62240000D01*
X65612164Y-62960000D02*
X65827836Y-62960000D01*
%TO.C,C13*%
X82165000Y-77211252D02*
X82165000Y-76688748D01*
X83635000Y-77211252D02*
X83635000Y-76688748D01*
%TO.C,R2*%
X77620000Y-66956359D02*
X77620000Y-67263641D01*
X78380000Y-66956359D02*
X78380000Y-67263641D01*
%TO.C,C11*%
X59640000Y-68227836D02*
X59640000Y-68012164D01*
X60360000Y-68227836D02*
X60360000Y-68012164D01*
%TO.C,J2*%
X72080000Y-53120000D02*
X72080000Y-55880000D01*
X79810000Y-53120000D02*
X72080000Y-53120000D01*
X79810000Y-53120000D02*
X79810000Y-55880000D01*
X79810000Y-55880000D02*
X72080000Y-55880000D01*
X81080000Y-53120000D02*
X82460000Y-53120000D01*
X82460000Y-53120000D02*
X82460000Y-54500000D01*
%TO.C,U2*%
X74490000Y-74800000D02*
X74490000Y-78560000D01*
X74490000Y-78560000D02*
X75750000Y-78560000D01*
X81310000Y-74800000D02*
X81310000Y-78560000D01*
X81310000Y-78560000D02*
X80050000Y-78560000D01*
X81540000Y-73760000D02*
X81210000Y-73520000D01*
X81540000Y-73280000D01*
X81540000Y-73760000D01*
G36*
X81540000Y-73760000D02*
G01*
X81210000Y-73520000D01*
X81540000Y-73280000D01*
X81540000Y-73760000D01*
G37*
%TO.C,J3*%
X57000000Y-53120000D02*
X57000000Y-55880000D01*
X64730000Y-53120000D02*
X57000000Y-53120000D01*
X64730000Y-53120000D02*
X64730000Y-55880000D01*
X64730000Y-55880000D02*
X57000000Y-55880000D01*
X66000000Y-53120000D02*
X67380000Y-53120000D01*
X67380000Y-53120000D02*
X67380000Y-54500000D01*
%TD*%
M02*
