M48
; DRILL file {KiCad 9.0.1} date 2025-05-17T01:13:32+0200
; FORMAT={-:-/ absolute / metric / decimal}
; #@! TF.CreationDate,2025-05-17T01:13:32+02:00
; #@! TF.GenerationSoftware,Kicad,Pcbnew,9.0.1
; #@! TF.FileFunction,MixedPlating,1,2
FMAT,2
METRIC
; #@! TA.AperFunction,Plated,PTH,ViaDrill
T1C0.300
; #@! TA.AperFunction,Plated,PTH,ComponentDrill
T2C0.550
; #@! TA.AperFunction,Plated,PTH,ComponentDrill
T3C0.850
; #@! TA.AperFunction,Plated,PTH,ComponentDrill
T4C1.000
; #@! TA.AperFunction,NonPlated,NPTH,ComponentDrill
T5C0.800
; #@! TA.AperFunction,NonPlated,NPTH,ComponentDrill
T6C0.900
; #@! TA.AperFunction,NonPlated,NPTH,ComponentDrill
T7C2.200
%
G90
G05
T1
X53.4Y-60.0
X56.4Y-69.6
X58.0Y-64.6
X60.0Y-64.6
X60.2Y-74.0
X60.2Y-75.4
X61.0Y-67.6
X62.0Y-63.6
X65.08Y-80.773
X65.465Y-69.502
X66.0Y-65.8
X66.6Y-80.8
X67.4Y-75.0
X68.6Y-77.8
X70.0Y-77.8
X70.6Y-71.2
X75.205Y-66.795
X79.8Y-70.6
X79.8Y-71.6
X79.8Y-75.0
X80.8Y-75.0
X84.2Y-76.0
X85.2Y-66.6
X88.6Y-73.8
X88.6Y-75.55
X89.4Y-74.6
T4
X58.38Y-54.5
X60.92Y-54.5
X63.46Y-54.5
X63.68Y-83.0
X66.0Y-54.5
X66.22Y-83.0
X68.76Y-83.0
X71.3Y-83.0
X73.46Y-54.5
X76.0Y-54.5
X78.54Y-54.5
X81.08Y-54.5
T5
X87.5Y-65.425
X87.5Y-70.425
T6
X50.24Y-60.75
X50.24Y-63.75
T7
X51.0Y-54.0
X51.0Y-83.5
X89.5Y-54.0
X89.5Y-83.5
T2
G00X89.925Y-64.05
M15
G01X90.575Y-64.05
M16
G05
G00X89.925Y-71.8
M15
G01X90.575Y-71.8
M16
G05
T3
G00X86.175Y-64.2
M15
G01X86.725Y-64.2
M16
G05
G00X86.175Y-71.65
M15
G01X86.725Y-71.65
M16
G05
M30
